<?xml version="1.0" encoding="UTF-8"?>
<svg xmlns="http://www.w3.org/2000/svg" width="215.9mm" height="279.4mm" viewBox="0 0 215.9 279.4">
<rect width="215.9" height="279.4" fill="white"/>
<path d="M 64.40,125.97
L 64.39,124.36
L 64.37,122.75
L 64.33,121.14
L 64.27,119.53
L 64.20,117.92
L 64.11,116.31
L 64.01,114.70
L 63.89,113.10
L 63.76,111.49
L 63.61,109.89
L 63.44,108.29
L 63.26,106.69
L 63.06,105.09
L 62.85,103.50
L 62.62,101.90
L 62.38,100.31
L 62.12,98.72
L 61.84,97.13
L 61.55,95.55
L 61.25,93.97
L 60.93,92.39
L 60.59,90.82
L 60.24,89.25
L 59.87,87.68
L 59.48,86.12
L 59.08,84.56
L 58.67,83.00
L 58.24,81.45
L 57.80,79.90
L 57.34,78.36
L 56.86,76.82
L 56.37,75.29
L 55.87,73.76
L 55.35,72.23
L 54.81,70.72
L 54.26,69.20
L 53.70,67.69
L 53.12,66.19
L 52.52,64.70
L 51.91,63.21
L 51.29,61.72
L 50.65,60.24
L 50.00,58.77
L 49.33,57.31
L 48.65,55.85
L 47.96,54.39
L 47.25,52.95
L 46.52,51.51
L 45.79,50.08
L 45.03,48.66
L 44.27,47.24
L 43.49,45.83
L 42.69,44.43
L 41.89,43.04
L 41.07,41.65
L 40.23,40.28
L 39.38,38.91
L 38.52,37.55
L 37.65,36.20
L 36.76,34.85
L 35.86,33.52
L 34.94,32.19
L 34.02,30.88
L 33.08,29.57
L 32.12,28.27
L 31.16,26.98
L 30.18,25.70
L 29.19,24.43
L 28.19,23.17
L 27.17,21.93
L 26.14,20.69
L 25.11,19.46
L 24.05,18.24
L 22.99,17.03
L 21.91,15.83
L 20.83,14.64
L 19.73,13.47
L 18.62,12.30
L 17.50,11.14
L 16.36,10.00
L 10.00,16.36
L 11.07,17.45
L 12.13,18.54
L 13.18,19.64
L 14.22,20.75
L 15.25,21.87
L 16.26,23.01
L 17.27,24.15
L 18.26,25.30
L 19.24,26.46
L 20.22,27.63
L 21.17,28.82
L 22.12,30.01
L 23.06,31.21
L 23.98,32.41
L 24.90,33.63
L 25.80,34.86
L 26.68,36.09
L 27.56,37.34
L 28.42,38.59
L 29.28,39.85
L 30.12,41.12
L 30.94,42.40
L 31.76,43.68
L 32.56,44.98
L 33.35,46.28
L 34.12,47.59
L 34.89,48.91
L 35.64,50.23
L 36.37,51.56
L 37.10,52.90
L 37.81,54.24
L 38.50,55.60
L 39.19,56.96
L 39.86,58.32
L 40.52,59.69
L 41.16,61.07
L 41.79,62.46
L 42.41,63.85
L 43.01,65.25
L 43.60,66.65
L 44.18,68.06
L 44.74,69.47
L 45.28,70.89
L 45.82,72.32
L 46.34,73.75
L 46.84,75.18
L 47.33,76.62
L 47.81,78.07
L 48.28,79.52
L 48.72,80.97
L 49.16,82.43
L 49.58,83.89
L 49.98,85.36
L 50.38,86.83
L 50.75,88.30
L 51.12,89.78
L 51.46,91.26
L 51.80,92.75
L 52.12,94.24
L 52.42,95.73
L 52.71,97.22
L 52.98,98.72
L 53.24,100.22
L 53.49,101.72
L 53.72,103.22
L 53.94,104.73
L 54.14,106.24
L 54.32,107.75
L 54.50,109.26
L 54.65,110.77
L 54.79,112.29
L 54.92,113.80
L 55.03,115.32
L 55.13,116.84
L 55.21,118.36
L 55.28,119.88
L 55.33,121.40
L 55.37,122.92
L 55.39,124.44
L 55.40,125.97
Z" fill="black" stroke="black" stroke-width="0.3"/>
<line x1="53.40" y1="125.97" x2="57.40" y2="125.97" stroke="black" stroke-width="0.3"/>
<line x1="62.40" y1="125.97" x2="66.40" y2="125.97" stroke="black" stroke-width="0.3"/>
<line x1="8.59" y1="17.78" x2="11.41" y2="14.95" stroke="black" stroke-width="0.3"/>
<line x1="14.95" y1="11.41" x2="17.78" y2="8.59" stroke="black" stroke-width="0.3"/>
<text x="37.2" y="130.0" text-anchor="middle" font-size="3.5" font-family="Arial, sans-serif" fill="black">Seg 1 - Black</text>
<path d="M 122.80,125.97
L 122.79,124.36
L 122.77,122.75
L 122.73,121.14
L 122.67,119.53
L 122.60,117.92
L 122.51,116.31
L 122.41,114.70
L 122.29,113.10
L 122.16,111.49
L 122.01,109.89
L 121.84,108.29
L 121.66,106.69
L 121.46,105.09
L 121.25,103.50
L 121.02,101.90
L 120.78,100.31
L 120.52,98.72
L 120.24,97.13
L 119.95,95.55
L 119.65,93.97
L 119.32,92.39
L 118.99,90.82
L 118.63,89.25
L 118.27,87.68
L 117.88,86.12
L 117.48,84.56
L 117.07,83.00
L 116.64,81.45
L 116.19,79.90
L 115.74,78.36
L 115.26,76.82
L 114.77,75.29
L 114.27,73.76
L 113.75,72.23
L 113.21,70.72
L 112.66,69.20
L 112.10,67.69
L 111.52,66.19
L 110.92,64.70
L 110.31,63.21
L 109.69,61.72
L 109.05,60.24
L 108.40,58.77
L 107.73,57.31
L 107.05,55.85
L 106.36,54.39
L 105.65,52.95
L 104.92,51.51
L 104.18,50.08
L 103.43,48.66
L 102.67,47.24
L 101.89,45.83
L 101.09,44.43
L 100.29,43.04
L 99.46,41.65
L 98.63,40.28
L 97.78,38.91
L 96.92,37.55
L 96.05,36.20
L 95.16,34.85
L 94.26,33.52
L 93.34,32.19
L 92.42,30.88
L 91.48,29.57
L 90.52,28.27
L 89.56,26.98
L 88.58,25.70
L 87.59,24.43
L 86.59,23.17
L 85.57,21.93
L 84.54,20.69
L 83.50,19.46
L 82.45,18.24
L 81.39,17.03
L 80.31,15.83
L 79.23,14.64
L 78.13,13.47
L 77.02,12.30
L 75.90,11.14
L 74.76,10.00
L 68.40,16.36
L 69.47,17.45
L 70.53,18.54
L 71.58,19.64
L 72.62,20.75
L 73.64,21.87
L 74.66,23.01
L 75.67,24.15
L 76.66,25.30
L 77.64,26.46
L 78.61,27.63
L 79.57,28.82
L 80.52,30.01
L 81.46,31.21
L 82.38,32.41
L 83.29,33.63
L 84.19,34.86
L 85.08,36.09
L 85.96,37.34
L 86.82,38.59
L 87.67,39.85
L 88.51,41.12
L 89.34,42.40
L 90.15,43.68
L 90.96,44.98
L 91.74,46.28
L 92.52,47.59
L 93.28,48.91
L 94.03,50.23
L 94.77,51.56
L 95.49,52.90
L 96.21,54.24
L 96.90,55.60
L 97.59,56.96
L 98.26,58.32
L 98.92,59.69
L 99.56,61.07
L 100.19,62.46
L 100.81,63.85
L 101.41,65.25
L 102.00,66.65
L 102.57,68.06
L 103.14,69.47
L 103.68,70.89
L 104.22,72.32
L 104.74,73.75
L 105.24,75.18
L 105.73,76.62
L 106.21,78.07
L 106.67,79.52
L 107.12,80.97
L 107.56,82.43
L 107.98,83.89
L 108.38,85.36
L 108.77,86.83
L 109.15,88.30
L 109.51,89.78
L 109.86,91.26
L 110.20,92.75
L 110.51,94.24
L 110.82,95.73
L 111.11,97.22
L 111.38,98.72
L 111.64,100.22
L 111.89,101.72
L 112.12,103.22
L 112.34,104.73
L 112.54,106.24
L 112.72,107.75
L 112.89,109.26
L 113.05,110.77
L 113.19,112.29
L 113.32,113.80
L 113.43,115.32
L 113.53,116.84
L 113.61,118.36
L 113.68,119.88
L 113.73,121.40
L 113.77,122.92
L 113.79,124.44
L 113.80,125.97
Z" fill="white" stroke="black" stroke-width="0.3"/>
<line x1="111.80" y1="125.97" x2="115.80" y2="125.97" stroke="black" stroke-width="0.3"/>
<line x1="120.80" y1="125.97" x2="124.80" y2="125.97" stroke="black" stroke-width="0.3"/>
<line x1="66.98" y1="17.78" x2="69.81" y2="14.95" stroke="black" stroke-width="0.3"/>
<line x1="73.35" y1="11.41" x2="76.18" y2="8.59" stroke="black" stroke-width="0.3"/>
<text x="95.6" y="130.0" text-anchor="middle" font-size="3.5" font-family="Arial, sans-serif" fill="black">Seg 2 - White</text>
<path d="M 181.20,125.97
L 181.19,124.36
L 181.16,122.75
L 181.12,121.14
L 181.07,119.53
L 181.00,117.92
L 180.91,116.31
L 180.81,114.70
L 180.69,113.10
L 180.56,111.49
L 180.41,109.89
L 180.24,108.29
L 180.06,106.69
L 179.86,105.09
L 179.65,103.50
L 179.42,101.90
L 179.18,100.31
L 178.92,98.72
L 178.64,97.13
L 178.35,95.55
L 178.04,93.97
L 177.72,92.39
L 177.38,90.82
L 177.03,89.25
L 176.66,87.68
L 176.28,86.12
L 175.88,84.56
L 175.47,83.00
L 175.04,81.45
L 174.59,79.90
L 174.13,78.36
L 173.66,76.82
L 173.17,75.29
L 172.66,73.76
L 172.14,72.23
L 171.61,70.72
L 171.06,69.20
L 170.49,67.69
L 169.91,66.19
L 169.32,64.70
L 168.71,63.21
L 168.09,61.72
L 167.45,60.24
L 166.80,58.77
L 166.13,57.31
L 165.45,55.85
L 164.75,54.39
L 164.04,52.95
L 163.32,51.51
L 162.58,50.08
L 161.83,48.66
L 161.06,47.24
L 160.28,45.83
L 159.49,44.43
L 158.68,43.04
L 157.86,41.65
L 157.03,40.28
L 156.18,38.91
L 155.32,37.55
L 154.44,36.20
L 153.56,34.85
L 152.66,33.52
L 151.74,32.19
L 150.81,30.88
L 149.87,29.57
L 148.92,28.27
L 147.96,26.98
L 146.98,25.70
L 145.99,24.43
L 144.98,23.17
L 143.97,21.93
L 142.94,20.69
L 141.90,19.46
L 140.85,18.24
L 139.79,17.03
L 138.71,15.83
L 137.62,14.64
L 136.53,13.47
L 135.42,12.30
L 134.29,11.14
L 133.16,10.00
L 126.80,16.36
L 127.87,17.45
L 128.93,18.54
L 129.98,19.64
L 131.02,20.75
L 132.04,21.87
L 133.06,23.01
L 134.06,24.15
L 135.06,25.30
L 136.04,26.46
L 137.01,27.63
L 137.97,28.82
L 138.92,30.01
L 139.86,31.21
L 140.78,32.41
L 141.69,33.63
L 142.59,34.86
L 143.48,36.09
L 144.36,37.34
L 145.22,38.59
L 146.07,39.85
L 146.91,41.12
L 147.74,42.40
L 148.55,43.68
L 149.35,44.98
L 150.14,46.28
L 150.92,47.59
L 151.68,48.91
L 152.43,50.23
L 153.17,51.56
L 153.89,52.90
L 154.60,54.24
L 155.30,55.60
L 155.99,56.96
L 156.66,58.32
L 157.31,59.69
L 157.96,61.07
L 158.59,62.46
L 159.20,63.85
L 159.81,65.25
L 160.40,66.65
L 160.97,68.06
L 161.53,69.47
L 162.08,70.89
L 162.62,72.32
L 163.13,73.75
L 163.64,75.18
L 164.13,76.62
L 164.61,78.07
L 165.07,79.52
L 165.52,80.97
L 165.96,82.43
L 166.38,83.89
L 166.78,85.36
L 167.17,86.83
L 167.55,88.30
L 167.91,89.78
L 168.26,91.26
L 168.59,92.75
L 168.91,94.24
L 169.22,95.73
L 169.51,97.22
L 169.78,98.72
L 170.04,100.22
L 170.29,101.72
L 170.52,103.22
L 170.73,104.73
L 170.93,106.24
L 171.12,107.75
L 171.29,109.26
L 171.45,110.77
L 171.59,112.29
L 171.72,113.80
L 171.83,115.32
L 171.93,116.84
L 172.01,118.36
L 172.08,119.88
L 172.13,121.40
L 172.17,122.92
L 172.19,124.44
L 172.20,125.97
Z" fill="black" stroke="black" stroke-width="0.3"/>
<line x1="170.20" y1="125.97" x2="174.20" y2="125.97" stroke="black" stroke-width="0.3"/>
<line x1="179.20" y1="125.97" x2="183.20" y2="125.97" stroke="black" stroke-width="0.3"/>
<line x1="125.38" y1="17.78" x2="128.21" y2="14.95" stroke="black" stroke-width="0.3"/>
<line x1="131.75" y1="11.41" x2="134.58" y2="8.59" stroke="black" stroke-width="0.3"/>
<text x="154.0" y="130.0" text-anchor="middle" font-size="3.5" font-family="Arial, sans-serif" fill="black">Seg 3 - Black</text>
<path d="M 64.40,249.93
L 64.39,248.32
L 64.37,246.71
L 64.33,245.10
L 64.27,243.49
L 64.20,241.88
L 64.11,240.28
L 64.01,238.67
L 63.89,237.06
L 63.76,235.46
L 63.61,233.86
L 63.44,232.25
L 63.26,230.65
L 63.06,229.06
L 62.85,227.46
L 62.62,225.87
L 62.38,224.28
L 62.12,222.69
L 61.84,221.10
L 61.55,219.52
L 61.25,217.94
L 60.93,216.36
L 60.59,214.78
L 60.24,213.21
L 59.87,211.65
L 59.48,210.08
L 59.08,208.52
L 58.67,206.97
L 58.24,205.41
L 57.80,203.87
L 57.34,202.32
L 56.86,200.79
L 56.37,199.25
L 55.87,197.72
L 55.35,196.20
L 54.81,194.68
L 54.26,193.17
L 53.70,191.66
L 53.12,190.16
L 52.52,188.66
L 51.91,187.17
L 51.29,185.69
L 50.65,184.21
L 50.00,182.74
L 49.33,181.27
L 48.65,179.81
L 47.96,178.36
L 47.25,176.91
L 46.52,175.48
L 45.79,174.05
L 45.03,172.62
L 44.27,171.21
L 43.49,169.80
L 42.69,168.40
L 41.89,167.00
L 41.07,165.62
L 40.23,164.24
L 39.38,162.87
L 38.52,161.51
L 37.65,160.16
L 36.76,158.82
L 35.86,157.48
L 34.94,156.16
L 34.02,154.84
L 33.08,153.53
L 32.12,152.24
L 31.16,150.95
L 30.18,149.67
L 29.19,148.40
L 28.19,147.14
L 27.17,145.89
L 26.14,144.65
L 25.11,143.42
L 24.05,142.20
L 22.99,140.99
L 21.91,139.80
L 20.83,138.61
L 19.73,137.43
L 18.62,136.26
L 17.50,135.11
L 16.36,133.97
L 10.00,140.33
L 11.07,141.41
L 12.13,142.50
L 13.18,143.60
L 14.22,144.72
L 15.25,145.84
L 16.26,146.97
L 17.27,148.11
L 18.26,149.27
L 19.24,150.43
L 20.22,151.60
L 21.17,152.78
L 22.12,153.97
L 23.06,155.17
L 23.98,156.38
L 24.90,157.60
L 25.80,158.82
L 26.68,160.06
L 27.56,161.30
L 28.42,162.56
L 29.28,163.82
L 30.12,165.09
L 30.94,166.36
L 31.76,167.65
L 32.56,168.94
L 33.35,170.25
L 34.12,171.55
L 34.89,172.87
L 35.64,174.19
L 36.37,175.53
L 37.10,176.86
L 37.81,178.21
L 38.50,179.56
L 39.19,180.92
L 39.86,182.29
L 40.52,183.66
L 41.16,185.04
L 41.79,186.42
L 42.41,187.81
L 43.01,189.21
L 43.60,190.62
L 44.18,192.02
L 44.74,193.44
L 45.28,194.86
L 45.82,196.28
L 46.34,197.71
L 46.84,199.15
L 47.33,200.59
L 47.81,202.03
L 48.28,203.48
L 48.72,204.94
L 49.16,206.40
L 49.58,207.86
L 49.98,209.32
L 50.38,210.79
L 50.75,212.27
L 51.12,213.75
L 51.46,215.23
L 51.80,216.71
L 52.12,218.20
L 52.42,219.69
L 52.71,221.19
L 52.98,222.68
L 53.24,224.18
L 53.49,225.68
L 53.72,227.19
L 53.94,228.69
L 54.14,230.20
L 54.32,231.71
L 54.50,233.22
L 54.65,234.74
L 54.79,236.25
L 54.92,237.77
L 55.03,239.29
L 55.13,240.81
L 55.21,242.33
L 55.28,243.85
L 55.33,245.37
L 55.37,246.89
L 55.39,248.41
L 55.40,249.93
Z" fill="white" stroke="black" stroke-width="0.3"/>
<line x1="53.40" y1="249.93" x2="57.40" y2="249.93" stroke="black" stroke-width="0.3"/>
<line x1="62.40" y1="249.93" x2="66.40" y2="249.93" stroke="black" stroke-width="0.3"/>
<line x1="8.59" y1="141.74" x2="11.41" y2="138.92" stroke="black" stroke-width="0.3"/>
<line x1="14.95" y1="135.38" x2="17.78" y2="132.55" stroke="black" stroke-width="0.3"/>
<text x="37.2" y="253.9" text-anchor="middle" font-size="3.5" font-family="Arial, sans-serif" fill="black">Seg 4 - White</text>
<path d="M 122.80,249.93
L 122.79,248.32
L 122.77,246.71
L 122.73,245.10
L 122.67,243.49
L 122.60,241.88
L 122.51,240.28
L 122.41,238.67
L 122.29,237.06
L 122.16,235.46
L 122.01,233.86
L 121.84,232.25
L 121.66,230.65
L 121.46,229.06
L 121.25,227.46
L 121.02,225.87
L 120.78,224.28
L 120.52,222.69
L 120.24,221.10
L 119.95,219.52
L 119.65,217.94
L 119.32,216.36
L 118.99,214.78
L 118.63,213.21
L 118.27,211.65
L 117.88,210.08
L 117.48,208.52
L 117.07,206.97
L 116.64,205.41
L 116.19,203.87
L 115.74,202.32
L 115.26,200.79
L 114.77,199.25
L 114.27,197.72
L 113.75,196.20
L 113.21,194.68
L 112.66,193.17
L 112.10,191.66
L 111.52,190.16
L 110.92,188.66
L 110.31,187.17
L 109.69,185.69
L 109.05,184.21
L 108.40,182.74
L 107.73,181.27
L 107.05,179.81
L 106.36,178.36
L 105.65,176.91
L 104.92,175.48
L 104.18,174.05
L 103.43,172.62
L 102.67,171.21
L 101.89,169.80
L 101.09,168.40
L 100.29,167.00
L 99.46,165.62
L 98.63,164.24
L 97.78,162.87
L 96.92,161.51
L 96.05,160.16
L 95.16,158.82
L 94.26,157.48
L 93.34,156.16
L 92.42,154.84
L 91.48,153.53
L 90.52,152.24
L 89.56,150.95
L 88.58,149.67
L 87.59,148.40
L 86.59,147.14
L 85.57,145.89
L 84.54,144.65
L 83.50,143.42
L 82.45,142.20
L 81.39,140.99
L 80.31,139.80
L 79.23,138.61
L 78.13,137.43
L 77.02,136.26
L 75.90,135.11
L 74.76,133.97
L 68.40,140.33
L 69.47,141.41
L 70.53,142.50
L 71.58,143.60
L 72.62,144.72
L 73.64,145.84
L 74.66,146.97
L 75.67,148.11
L 76.66,149.27
L 77.64,150.43
L 78.61,151.60
L 79.57,152.78
L 80.52,153.97
L 81.46,155.17
L 82.38,156.38
L 83.29,157.60
L 84.19,158.82
L 85.08,160.06
L 85.96,161.30
L 86.82,162.56
L 87.67,163.82
L 88.51,165.09
L 89.34,166.36
L 90.15,167.65
L 90.96,168.94
L 91.74,170.25
L 92.52,171.55
L 93.28,172.87
L 94.03,174.19
L 94.77,175.53
L 95.49,176.86
L 96.21,178.21
L 96.90,179.56
L 97.59,180.92
L 98.26,182.29
L 98.92,183.66
L 99.56,185.04
L 100.19,186.42
L 100.81,187.81
L 101.41,189.21
L 102.00,190.62
L 102.57,192.02
L 103.14,193.44
L 103.68,194.86
L 104.22,196.28
L 104.74,197.71
L 105.24,199.15
L 105.73,200.59
L 106.21,202.03
L 106.67,203.48
L 107.12,204.94
L 107.56,206.40
L 107.98,207.86
L 108.38,209.32
L 108.77,210.79
L 109.15,212.27
L 109.51,213.75
L 109.86,215.23
L 110.20,216.71
L 110.51,218.20
L 110.82,219.69
L 111.11,221.19
L 111.38,222.68
L 111.64,224.18
L 111.89,225.68
L 112.12,227.19
L 112.34,228.69
L 112.54,230.20
L 112.72,231.71
L 112.89,233.22
L 113.05,234.74
L 113.19,236.25
L 113.32,237.77
L 113.43,239.29
L 113.53,240.81
L 113.61,242.33
L 113.68,243.85
L 113.73,245.37
L 113.77,246.89
L 113.79,248.41
L 113.80,249.93
Z" fill="black" stroke="black" stroke-width="0.3"/>
<line x1="111.80" y1="249.93" x2="115.80" y2="249.93" stroke="black" stroke-width="0.3"/>
<line x1="120.80" y1="249.93" x2="124.80" y2="249.93" stroke="black" stroke-width="0.3"/>
<line x1="66.98" y1="141.74" x2="69.81" y2="138.92" stroke="black" stroke-width="0.3"/>
<line x1="73.35" y1="135.38" x2="76.18" y2="132.55" stroke="black" stroke-width="0.3"/>
<text x="95.6" y="253.9" text-anchor="middle" font-size="3.5" font-family="Arial, sans-serif" fill="black">Seg 5 - Black</text>
<path d="M 181.20,249.93
L 181.19,248.32
L 181.16,246.71
L 181.12,245.10
L 181.07,243.49
L 181.00,241.88
L 180.91,240.28
L 180.81,238.67
L 180.69,237.06
L 180.56,235.46
L 180.41,233.86
L 180.24,232.25
L 180.06,230.65
L 179.86,229.06
L 179.65,227.46
L 179.42,225.87
L 179.18,224.28
L 178.92,222.69
L 178.64,221.10
L 178.35,219.52
L 178.04,217.94
L 177.72,216.36
L 177.38,214.78
L 177.03,213.21
L 176.66,211.65
L 176.28,210.08
L 175.88,208.52
L 175.47,206.97
L 175.04,205.41
L 174.59,203.87
L 174.13,202.32
L 173.66,200.79
L 173.17,199.25
L 172.66,197.72
L 172.14,196.20
L 171.61,194.68
L 171.06,193.17
L 170.49,191.66
L 169.91,190.16
L 169.32,188.66
L 168.71,187.17
L 168.09,185.69
L 167.45,184.21
L 166.80,182.74
L 166.13,181.27
L 165.45,179.81
L 164.75,178.36
L 164.04,176.91
L 163.32,175.48
L 162.58,174.05
L 161.83,172.62
L 161.06,171.21
L 160.28,169.80
L 159.49,168.40
L 158.68,167.00
L 157.86,165.62
L 157.03,164.24
L 156.18,162.87
L 155.32,161.51
L 154.44,160.16
L 153.56,158.82
L 152.66,157.48
L 151.74,156.16
L 150.81,154.84
L 149.87,153.53
L 148.92,152.24
L 147.96,150.95
L 146.98,149.67
L 145.99,148.40
L 144.98,147.14
L 143.97,145.89
L 142.94,144.65
L 141.90,143.42
L 140.85,142.20
L 139.79,140.99
L 138.71,139.80
L 137.62,138.61
L 136.53,137.43
L 135.42,136.26
L 134.29,135.11
L 133.16,133.97
L 126.80,140.33
L 127.87,141.41
L 128.93,142.50
L 129.98,143.60
L 131.02,144.72
L 132.04,145.84
L 133.06,146.97
L 134.06,148.11
L 135.06,149.27
L 136.04,150.43
L 137.01,151.60
L 137.97,152.78
L 138.92,153.97
L 139.86,155.17
L 140.78,156.38
L 141.69,157.60
L 142.59,158.82
L 143.48,160.06
L 144.36,161.30
L 145.22,162.56
L 146.07,163.82
L 146.91,165.09
L 147.74,166.36
L 148.55,167.65
L 149.35,168.94
L 150.14,170.25
L 150.92,171.55
L 151.68,172.87
L 152.43,174.19
L 153.17,175.53
L 153.89,176.86
L 154.60,178.21
L 155.30,179.56
L 155.99,180.92
L 156.66,182.29
L 157.31,183.66
L 157.96,185.04
L 158.59,186.42
L 159.20,187.81
L 159.81,189.21
L 160.40,190.62
L 160.97,192.02
L 161.53,193.44
L 162.08,194.86
L 162.62,196.28
L 163.13,197.71
L 163.64,199.15
L 164.13,200.59
L 164.61,202.03
L 165.07,203.48
L 165.52,204.94
L 165.96,206.40
L 166.38,207.86
L 166.78,209.32
L 167.17,210.79
L 167.55,212.27
L 167.91,213.75
L 168.26,215.23
L 168.59,216.71
L 168.91,218.20
L 169.22,219.69
L 169.51,221.19
L 169.78,222.68
L 170.04,224.18
L 170.29,225.68
L 170.52,227.19
L 170.73,228.69
L 170.93,230.20
L 171.12,231.71
L 171.29,233.22
L 171.45,234.74
L 171.59,236.25
L 171.72,237.77
L 171.83,239.29
L 171.93,240.81
L 172.01,242.33
L 172.08,243.85
L 172.13,245.37
L 172.17,246.89
L 172.19,248.41
L 172.20,249.93
Z" fill="white" stroke="black" stroke-width="0.3"/>
<line x1="170.20" y1="249.93" x2="174.20" y2="249.93" stroke="black" stroke-width="0.3"/>
<line x1="179.20" y1="249.93" x2="183.20" y2="249.93" stroke="black" stroke-width="0.3"/>
<line x1="125.38" y1="141.74" x2="128.21" y2="138.92" stroke="black" stroke-width="0.3"/>
<line x1="131.75" y1="135.38" x2="134.58" y2="132.55" stroke="black" stroke-width="0.3"/>
<text x="154.0" y="253.9" text-anchor="middle" font-size="3.5" font-family="Arial, sans-serif" fill="black">Seg 6 - White</text>
</svg>