<?xml version="1.0" encoding="UTF-8"?>
<svg xmlns="http://www.w3.org/2000/svg" width="215.9mm" height="279.4mm" viewBox="0 0 215.9 279.4">
<rect width="215.9" height="279.4" fill="white"/>
<path d="M 67.40,128.09
L 67.39,126.45
L 67.37,124.81
L 67.33,123.17
L 67.27,121.53
L 67.20,119.89
L 67.11,118.26
L 67.00,116.62
L 66.88,114.98
L 66.75,113.35
L 66.59,111.72
L 66.43,110.09
L 66.24,108.46
L 66.04,106.83
L 65.82,105.21
L 65.59,103.58
L 65.34,101.96
L 65.08,100.34
L 64.80,98.73
L 64.50,97.12
L 64.19,95.51
L 63.86,93.90
L 63.52,92.30
L 63.16,90.70
L 62.78,89.10
L 62.39,87.51
L 61.99,85.92
L 61.57,84.34
L 61.13,82.76
L 60.68,81.18
L 60.21,79.61
L 59.72,78.04
L 59.22,76.48
L 58.71,74.92
L 58.18,73.37
L 57.64,71.83
L 57.08,70.29
L 56.50,68.75
L 55.91,67.22
L 55.31,65.70
L 54.69,64.18
L 54.05,62.67
L 53.40,61.16
L 52.74,59.66
L 52.06,58.17
L 51.36,56.69
L 50.66,55.21
L 49.93,53.73
L 49.20,52.27
L 48.45,50.81
L 47.68,49.36
L 46.90,47.92
L 46.11,46.49
L 45.30,45.06
L 44.48,43.64
L 43.64,42.23
L 42.79,40.83
L 41.93,39.44
L 41.05,38.05
L 40.16,36.67
L 39.25,35.31
L 38.34,33.95
L 37.41,32.60
L 36.46,31.26
L 35.50,29.93
L 34.53,28.61
L 33.55,27.29
L 32.56,25.99
L 31.55,24.70
L 30.53,23.42
L 29.49,22.14
L 28.44,20.88
L 27.39,19.63
L 26.32,18.39
L 25.23,17.16
L 24.14,15.94
L 23.03,14.73
L 21.91,13.53
L 20.78,12.34
L 19.64,11.16
L 18.49,10.00
L 10.00,18.49
L 11.07,19.57
L 12.13,20.66
L 13.18,21.76
L 14.22,22.87
L 15.25,24.00
L 16.26,25.13
L 17.27,26.27
L 18.26,27.42
L 19.24,28.58
L 20.22,29.76
L 21.17,30.94
L 22.12,32.13
L 23.06,33.33
L 23.98,34.54
L 24.90,35.75
L 25.80,36.98
L 26.68,38.22
L 27.56,39.46
L 28.42,40.71
L 29.28,41.97
L 30.12,43.24
L 30.94,44.52
L 31.76,45.81
L 32.56,47.10
L 33.35,48.40
L 34.12,49.71
L 34.89,51.03
L 35.64,52.35
L 36.37,53.68
L 37.10,55.02
L 37.81,56.37
L 38.50,57.72
L 39.19,59.08
L 39.86,60.44
L 40.52,61.82
L 41.16,63.19
L 41.79,64.58
L 42.41,65.97
L 43.01,67.37
L 43.60,68.77
L 44.18,70.18
L 44.74,71.59
L 45.28,73.01
L 45.82,74.44
L 46.34,75.87
L 46.84,77.30
L 47.33,78.74
L 47.81,80.19
L 48.28,81.64
L 48.72,83.09
L 49.16,84.55
L 49.58,86.01
L 49.98,87.48
L 50.38,88.95
L 50.75,90.42
L 51.12,91.90
L 51.46,93.38
L 51.80,94.87
L 52.12,96.36
L 52.42,97.85
L 52.71,99.34
L 52.98,100.84
L 53.24,102.34
L 53.49,103.84
L 53.72,105.34
L 53.94,106.85
L 54.14,108.36
L 54.32,109.87
L 54.50,111.38
L 54.65,112.89
L 54.79,114.41
L 54.92,115.93
L 55.03,117.44
L 55.13,118.96
L 55.21,120.48
L 55.28,122.00
L 55.33,123.52
L 55.37,125.04
L 55.39,126.57
L 55.40,128.09
Z" fill="black" stroke="black" stroke-width="0.3"/>
<line x1="53.40" y1="128.09" x2="57.40" y2="128.09" stroke="black" stroke-width="0.3"/>
<line x1="65.40" y1="128.09" x2="69.40" y2="128.09" stroke="black" stroke-width="0.3"/>
<line x1="8.59" y1="19.90" x2="11.41" y2="17.07" stroke="black" stroke-width="0.3"/>
<line x1="17.07" y1="11.41" x2="19.90" y2="8.59" stroke="black" stroke-width="0.3"/>
<text x="38.7" y="132.1" text-anchor="middle" font-size="3.5" font-family="Arial, sans-serif" fill="black">Seg 1 - Black</text>
<path d="M 128.80,128.09
L 128.79,126.45
L 128.76,124.81
L 128.72,123.17
L 128.67,121.53
L 128.60,119.89
L 128.51,118.26
L 128.40,116.62
L 128.28,114.98
L 128.15,113.35
L 127.99,111.72
L 127.82,110.09
L 127.64,108.46
L 127.44,106.83
L 127.22,105.21
L 126.99,103.58
L 126.74,101.96
L 126.48,100.34
L 126.20,98.73
L 125.90,97.12
L 125.59,95.51
L 125.26,93.90
L 124.92,92.30
L 124.56,90.70
L 124.18,89.10
L 123.79,87.51
L 123.39,85.92
L 122.96,84.34
L 122.53,82.76
L 122.07,81.18
L 121.61,79.61
L 121.12,78.04
L 120.62,76.48
L 120.11,74.92
L 119.58,73.37
L 119.03,71.83
L 118.47,70.29
L 117.90,68.75
L 117.31,67.22
L 116.70,65.70
L 116.08,64.18
L 115.45,62.67
L 114.80,61.16
L 114.14,59.66
L 113.46,58.17
L 112.76,56.69
L 112.05,55.21
L 111.33,53.73
L 110.59,52.27
L 109.84,50.81
L 109.08,49.36
L 108.30,47.92
L 107.50,46.49
L 106.70,45.06
L 105.87,43.64
L 105.04,42.23
L 104.19,40.83
L 103.32,39.44
L 102.45,38.05
L 101.56,36.67
L 100.65,35.31
L 99.73,33.95
L 98.80,32.60
L 97.86,31.26
L 96.90,29.93
L 95.93,28.61
L 94.95,27.29
L 93.95,25.99
L 92.94,24.70
L 91.92,23.42
L 90.89,22.14
L 89.84,20.88
L 88.78,19.63
L 87.71,18.39
L 86.63,17.16
L 85.54,15.94
L 84.43,14.73
L 83.31,13.53
L 82.18,12.34
L 81.04,11.16
L 79.88,10.00
L 71.40,18.49
L 72.47,19.57
L 73.53,20.66
L 74.58,21.76
L 75.62,22.87
L 76.64,24.00
L 77.66,25.13
L 78.67,26.27
L 79.66,27.42
L 80.64,28.58
L 81.61,29.76
L 82.57,30.94
L 83.52,32.13
L 84.46,33.33
L 85.38,34.54
L 86.29,35.75
L 87.19,36.98
L 88.08,38.22
L 88.96,39.46
L 89.82,40.71
L 90.67,41.97
L 91.51,43.24
L 92.34,44.52
L 93.15,45.81
L 93.96,47.10
L 94.74,48.40
L 95.52,49.71
L 96.28,51.03
L 97.03,52.35
L 97.77,53.68
L 98.49,55.02
L 99.21,56.37
L 99.90,57.72
L 100.59,59.08
L 101.26,60.44
L 101.92,61.82
L 102.56,63.19
L 103.19,64.58
L 103.81,65.97
L 104.41,67.37
L 105.00,68.77
L 105.57,70.18
L 106.14,71.59
L 106.68,73.01
L 107.22,74.44
L 107.74,75.87
L 108.24,77.30
L 108.73,78.74
L 109.21,80.19
L 109.67,81.64
L 110.12,83.09
L 110.56,84.55
L 110.98,86.01
L 111.38,87.48
L 111.77,88.95
L 112.15,90.42
L 112.51,91.90
L 112.86,93.38
L 113.20,94.87
L 113.51,96.36
L 113.82,97.85
L 114.11,99.34
L 114.38,100.84
L 114.64,102.34
L 114.89,103.84
L 115.12,105.34
L 115.34,106.85
L 115.54,108.36
L 115.72,109.87
L 115.89,111.38
L 116.05,112.89
L 116.19,114.41
L 116.32,115.93
L 116.43,117.44
L 116.53,118.96
L 116.61,120.48
L 116.68,122.00
L 116.73,123.52
L 116.77,125.04
L 116.79,126.57
L 116.80,128.09
Z" fill="white" stroke="black" stroke-width="0.3"/>
<line x1="114.80" y1="128.09" x2="118.80" y2="128.09" stroke="black" stroke-width="0.3"/>
<line x1="126.80" y1="128.09" x2="130.80" y2="128.09" stroke="black" stroke-width="0.3"/>
<line x1="69.98" y1="19.90" x2="72.81" y2="17.07" stroke="black" stroke-width="0.3"/>
<line x1="78.47" y1="11.41" x2="81.30" y2="8.59" stroke="black" stroke-width="0.3"/>
<text x="100.1" y="132.1" text-anchor="middle" font-size="3.5" font-family="Arial, sans-serif" fill="black">Seg 2 - White</text>
<path d="M 190.20,128.09
L 190.19,126.45
L 190.16,124.81
L 190.12,123.17
L 190.07,121.53
L 189.99,119.89
L 189.91,118.26
L 189.80,116.62
L 189.68,114.98
L 189.54,113.35
L 189.39,111.72
L 189.22,110.09
L 189.04,108.46
L 188.84,106.83
L 188.62,105.21
L 188.39,103.58
L 188.14,101.96
L 187.87,100.34
L 187.59,98.73
L 187.30,97.12
L 186.99,95.51
L 186.66,93.90
L 186.32,92.30
L 185.96,90.70
L 185.58,89.10
L 185.19,87.51
L 184.78,85.92
L 184.36,84.34
L 183.93,82.76
L 183.47,81.18
L 183.00,79.61
L 182.52,78.04
L 182.02,76.48
L 181.51,74.92
L 180.98,73.37
L 180.43,71.83
L 179.87,70.29
L 179.30,68.75
L 178.71,67.22
L 178.10,65.70
L 177.48,64.18
L 176.85,62.67
L 176.20,61.16
L 175.53,59.66
L 174.86,58.17
L 174.16,56.69
L 173.45,55.21
L 172.73,53.73
L 171.99,52.27
L 171.24,50.81
L 170.48,49.36
L 169.70,47.92
L 168.90,46.49
L 168.09,45.06
L 167.27,43.64
L 166.44,42.23
L 165.59,40.83
L 164.72,39.44
L 163.85,38.05
L 162.95,36.67
L 162.05,35.31
L 161.13,33.95
L 160.20,32.60
L 159.26,31.26
L 158.30,29.93
L 157.33,28.61
L 156.35,27.29
L 155.35,25.99
L 154.34,24.70
L 153.32,23.42
L 152.29,22.14
L 151.24,20.88
L 150.18,19.63
L 149.11,18.39
L 148.03,17.16
L 146.93,15.94
L 145.83,14.73
L 144.71,13.53
L 143.58,12.34
L 142.44,11.16
L 141.28,10.00
L 132.80,18.49
L 133.87,19.57
L 134.93,20.66
L 135.98,21.76
L 137.02,22.87
L 138.04,24.00
L 139.06,25.13
L 140.06,26.27
L 141.06,27.42
L 142.04,28.58
L 143.01,29.76
L 143.97,30.94
L 144.92,32.13
L 145.86,33.33
L 146.78,34.54
L 147.69,35.75
L 148.59,36.98
L 149.48,38.22
L 150.36,39.46
L 151.22,40.71
L 152.07,41.97
L 152.91,43.24
L 153.74,44.52
L 154.55,45.81
L 155.35,47.10
L 156.14,48.40
L 156.92,49.71
L 157.68,51.03
L 158.43,52.35
L 159.17,53.68
L 159.89,55.02
L 160.60,56.37
L 161.30,57.72
L 161.99,59.08
L 162.66,60.44
L 163.31,61.82
L 163.96,63.19
L 164.59,64.58
L 165.20,65.97
L 165.81,67.37
L 166.40,68.77
L 166.97,70.18
L 167.53,71.59
L 168.08,73.01
L 168.62,74.44
L 169.13,75.87
L 169.64,77.30
L 170.13,78.74
L 170.61,80.19
L 171.07,81.64
L 171.52,83.09
L 171.96,84.55
L 172.38,86.01
L 172.78,87.48
L 173.17,88.95
L 173.55,90.42
L 173.91,91.90
L 174.26,93.38
L 174.59,94.87
L 174.91,96.36
L 175.22,97.85
L 175.51,99.34
L 175.78,100.84
L 176.04,102.34
L 176.29,103.84
L 176.52,105.34
L 176.73,106.85
L 176.93,108.36
L 177.12,109.87
L 177.29,111.38
L 177.45,112.89
L 177.59,114.41
L 177.72,115.93
L 177.83,117.44
L 177.93,118.96
L 178.01,120.48
L 178.08,122.00
L 178.13,123.52
L 178.17,125.04
L 178.19,126.57
L 178.20,128.09
Z" fill="black" stroke="black" stroke-width="0.3"/>
<line x1="176.20" y1="128.09" x2="180.20" y2="128.09" stroke="black" stroke-width="0.3"/>
<line x1="188.20" y1="128.09" x2="192.20" y2="128.09" stroke="black" stroke-width="0.3"/>
<line x1="131.38" y1="19.90" x2="134.21" y2="17.07" stroke="black" stroke-width="0.3"/>
<line x1="139.87" y1="11.41" x2="142.70" y2="8.59" stroke="black" stroke-width="0.3"/>
<text x="161.5" y="132.1" text-anchor="middle" font-size="3.5" font-family="Arial, sans-serif" fill="black">Seg 3 - Black</text>
<path d="M 67.40,254.17
L 67.39,252.53
L 67.37,250.89
L 67.33,249.26
L 67.27,247.62
L 67.20,245.98
L 67.11,244.34
L 67.00,242.71
L 66.88,241.07
L 66.75,239.44
L 66.59,237.80
L 66.43,236.17
L 66.24,234.54
L 66.04,232.92
L 65.82,231.29
L 65.59,229.67
L 65.34,228.05
L 65.08,226.43
L 64.80,224.82
L 64.50,223.20
L 64.19,221.59
L 63.86,219.99
L 63.52,218.38
L 63.16,216.78
L 62.78,215.19
L 62.39,213.60
L 61.99,212.01
L 61.57,210.42
L 61.13,208.84
L 60.68,207.27
L 60.21,205.70
L 59.72,204.13
L 59.22,202.57
L 58.71,201.01
L 58.18,199.46
L 57.64,197.91
L 57.08,196.37
L 56.50,194.84
L 55.91,193.31
L 55.31,191.78
L 54.69,190.27
L 54.05,188.75
L 53.40,187.25
L 52.74,185.75
L 52.06,184.26
L 51.36,182.77
L 50.66,181.29
L 49.93,179.82
L 49.20,178.36
L 48.45,176.90
L 47.68,175.45
L 46.90,174.01
L 46.11,172.57
L 45.30,171.15
L 44.48,169.73
L 43.64,168.32
L 42.79,166.92
L 41.93,165.52
L 41.05,164.14
L 40.16,162.76
L 39.25,161.39
L 38.34,160.03
L 37.41,158.69
L 36.46,157.34
L 35.50,156.01
L 34.53,154.69
L 33.55,153.38
L 32.56,152.08
L 31.55,150.78
L 30.53,149.50
L 29.49,148.23
L 28.44,146.97
L 27.39,145.72
L 26.32,144.47
L 25.23,143.24
L 24.14,142.02
L 23.03,140.81
L 21.91,139.62
L 20.78,138.43
L 19.64,137.25
L 18.49,136.09
L 10.00,144.57
L 11.07,145.65
L 12.13,146.75
L 13.18,147.85
L 14.22,148.96
L 15.25,150.08
L 16.26,151.21
L 17.27,152.36
L 18.26,153.51
L 19.24,154.67
L 20.22,155.84
L 21.17,157.02
L 22.12,158.21
L 23.06,159.41
L 23.98,160.62
L 24.90,161.84
L 25.80,163.07
L 26.68,164.30
L 27.56,165.55
L 28.42,166.80
L 29.28,168.06
L 30.12,169.33
L 30.94,170.61
L 31.76,171.89
L 32.56,173.19
L 33.35,174.49
L 34.12,175.80
L 34.89,177.11
L 35.64,178.44
L 36.37,179.77
L 37.10,181.11
L 37.81,182.45
L 38.50,183.81
L 39.19,185.16
L 39.86,186.53
L 40.52,187.90
L 41.16,189.28
L 41.79,190.67
L 42.41,192.06
L 43.01,193.45
L 43.60,194.86
L 44.18,196.27
L 44.74,197.68
L 45.28,199.10
L 45.82,200.53
L 46.34,201.96
L 46.84,203.39
L 47.33,204.83
L 47.81,206.28
L 48.28,207.73
L 48.72,209.18
L 49.16,210.64
L 49.58,212.10
L 49.98,213.57
L 50.38,215.04
L 50.75,216.51
L 51.12,217.99
L 51.46,219.47
L 51.80,220.96
L 52.12,222.44
L 52.42,223.93
L 52.71,225.43
L 52.98,226.93
L 53.24,228.42
L 53.49,229.93
L 53.72,231.43
L 53.94,232.94
L 54.14,234.45
L 54.32,235.96
L 54.50,237.47
L 54.65,238.98
L 54.79,240.50
L 54.92,242.01
L 55.03,243.53
L 55.13,245.05
L 55.21,246.57
L 55.28,248.09
L 55.33,249.61
L 55.37,251.13
L 55.39,252.65
L 55.40,254.17
Z" fill="white" stroke="black" stroke-width="0.3"/>
<line x1="53.40" y1="254.17" x2="57.40" y2="254.17" stroke="black" stroke-width="0.3"/>
<line x1="65.40" y1="254.17" x2="69.40" y2="254.17" stroke="black" stroke-width="0.3"/>
<line x1="8.59" y1="145.99" x2="11.41" y2="143.16" stroke="black" stroke-width="0.3"/>
<line x1="17.07" y1="137.50" x2="19.90" y2="134.67" stroke="black" stroke-width="0.3"/>
<text x="38.7" y="258.2" text-anchor="middle" font-size="3.5" font-family="Arial, sans-serif" fill="black">Seg 4 - White</text>
<path d="M 128.80,254.17
L 128.79,252.53
L 128.76,250.89
L 128.72,249.26
L 128.67,247.62
L 128.60,245.98
L 128.51,244.34
L 128.40,242.71
L 128.28,241.07
L 128.15,239.44
L 127.99,237.80
L 127.82,236.17
L 127.64,234.54
L 127.44,232.92
L 127.22,231.29
L 126.99,229.67
L 126.74,228.05
L 126.48,226.43
L 126.20,224.82
L 125.90,223.20
L 125.59,221.59
L 125.26,219.99
L 124.92,218.38
L 124.56,216.78
L 124.18,215.19
L 123.79,213.60
L 123.39,212.01
L 122.96,210.42
L 122.53,208.84
L 122.07,207.27
L 121.61,205.70
L 121.12,204.13
L 120.62,202.57
L 120.11,201.01
L 119.58,199.46
L 119.03,197.91
L 118.47,196.37
L 117.90,194.84
L 117.31,193.31
L 116.70,191.78
L 116.08,190.27
L 115.45,188.75
L 114.80,187.25
L 114.14,185.75
L 113.46,184.26
L 112.76,182.77
L 112.05,181.29
L 111.33,179.82
L 110.59,178.36
L 109.84,176.90
L 109.08,175.45
L 108.30,174.01
L 107.50,172.57
L 106.70,171.15
L 105.87,169.73
L 105.04,168.32
L 104.19,166.92
L 103.32,165.52
L 102.45,164.14
L 101.56,162.76
L 100.65,161.39
L 99.73,160.03
L 98.80,158.69
L 97.86,157.34
L 96.90,156.01
L 95.93,154.69
L 94.95,153.38
L 93.95,152.08
L 92.94,150.78
L 91.92,149.50
L 90.89,148.23
L 89.84,146.97
L 88.78,145.72
L 87.71,144.47
L 86.63,143.24
L 85.54,142.02
L 84.43,140.81
L 83.31,139.62
L 82.18,138.43
L 81.04,137.25
L 79.88,136.09
L 71.40,144.57
L 72.47,145.65
L 73.53,146.75
L 74.58,147.85
L 75.62,148.96
L 76.64,150.08
L 77.66,151.21
L 78.67,152.36
L 79.66,153.51
L 80.64,154.67
L 81.61,155.84
L 82.57,157.02
L 83.52,158.21
L 84.46,159.41
L 85.38,160.62
L 86.29,161.84
L 87.19,163.07
L 88.08,164.30
L 88.96,165.55
L 89.82,166.80
L 90.67,168.06
L 91.51,169.33
L 92.34,170.61
L 93.15,171.89
L 93.96,173.19
L 94.74,174.49
L 95.52,175.80
L 96.28,177.11
L 97.03,178.44
L 97.77,179.77
L 98.49,181.11
L 99.21,182.45
L 99.90,183.81
L 100.59,185.16
L 101.26,186.53
L 101.92,187.90
L 102.56,189.28
L 103.19,190.67
L 103.81,192.06
L 104.41,193.45
L 105.00,194.86
L 105.57,196.27
L 106.14,197.68
L 106.68,199.10
L 107.22,200.53
L 107.74,201.96
L 108.24,203.39
L 108.73,204.83
L 109.21,206.28
L 109.67,207.73
L 110.12,209.18
L 110.56,210.64
L 110.98,212.10
L 111.38,213.57
L 111.77,215.04
L 112.15,216.51
L 112.51,217.99
L 112.86,219.47
L 113.20,220.96
L 113.51,222.44
L 113.82,223.93
L 114.11,225.43
L 114.38,226.93
L 114.64,228.42
L 114.89,229.93
L 115.12,231.43
L 115.34,232.94
L 115.54,234.45
L 115.72,235.96
L 115.89,237.47
L 116.05,238.98
L 116.19,240.50
L 116.32,242.01
L 116.43,243.53
L 116.53,245.05
L 116.61,246.57
L 116.68,248.09
L 116.73,249.61
L 116.77,251.13
L 116.79,252.65
L 116.80,254.17
Z" fill="black" stroke="black" stroke-width="0.3"/>
<line x1="114.80" y1="254.17" x2="118.80" y2="254.17" stroke="black" stroke-width="0.3"/>
<line x1="126.80" y1="254.17" x2="130.80" y2="254.17" stroke="black" stroke-width="0.3"/>
<line x1="69.98" y1="145.99" x2="72.81" y2="143.16" stroke="black" stroke-width="0.3"/>
<line x1="78.47" y1="137.50" x2="81.30" y2="134.67" stroke="black" stroke-width="0.3"/>
<text x="100.1" y="258.2" text-anchor="middle" font-size="3.5" font-family="Arial, sans-serif" fill="black">Seg 5 - Black</text>
<path d="M 190.20,254.17
L 190.19,252.53
L 190.16,250.89
L 190.12,249.26
L 190.07,247.62
L 189.99,245.98
L 189.91,244.34
L 189.80,242.71
L 189.68,241.07
L 189.54,239.44
L 189.39,237.80
L 189.22,236.17
L 189.04,234.54
L 188.84,232.92
L 188.62,231.29
L 188.39,229.67
L 188.14,228.05
L 187.87,226.43
L 187.59,224.82
L 187.30,223.20
L 186.99,221.59
L 186.66,219.99
L 186.32,218.38
L 185.96,216.78
L 185.58,215.19
L 185.19,213.60
L 184.78,212.01
L 184.36,210.42
L 183.93,208.84
L 183.47,207.27
L 183.00,205.70
L 182.52,204.13
L 182.02,202.57
L 181.51,201.01
L 180.98,199.46
L 180.43,197.91
L 179.87,196.37
L 179.30,194.84
L 178.71,193.31
L 178.10,191.78
L 177.48,190.27
L 176.85,188.75
L 176.20,187.25
L 175.53,185.75
L 174.86,184.26
L 174.16,182.77
L 173.45,181.29
L 172.73,179.82
L 171.99,178.36
L 171.24,176.90
L 170.48,175.45
L 169.70,174.01
L 168.90,172.57
L 168.09,171.15
L 167.27,169.73
L 166.44,168.32
L 165.59,166.92
L 164.72,165.52
L 163.85,164.14
L 162.95,162.76
L 162.05,161.39
L 161.13,160.03
L 160.20,158.69
L 159.26,157.34
L 158.30,156.01
L 157.33,154.69
L 156.35,153.38
L 155.35,152.08
L 154.34,150.78
L 153.32,149.50
L 152.29,148.23
L 151.24,146.97
L 150.18,145.72
L 149.11,144.47
L 148.03,143.24
L 146.93,142.02
L 145.83,140.81
L 144.71,139.62
L 143.58,138.43
L 142.44,137.25
L 141.28,136.09
L 132.80,144.57
L 133.87,145.65
L 134.93,146.75
L 135.98,147.85
L 137.02,148.96
L 138.04,150.08
L 139.06,151.21
L 140.06,152.36
L 141.06,153.51
L 142.04,154.67
L 143.01,155.84
L 143.97,157.02
L 144.92,158.21
L 145.86,159.41
L 146.78,160.62
L 147.69,161.84
L 148.59,163.07
L 149.48,164.30
L 150.36,165.55
L 151.22,166.80
L 152.07,168.06
L 152.91,169.33
L 153.74,170.61
L 154.55,171.89
L 155.35,173.19
L 156.14,174.49
L 156.92,175.80
L 157.68,177.11
L 158.43,178.44
L 159.17,179.77
L 159.89,181.11
L 160.60,182.45
L 161.30,183.81
L 161.99,185.16
L 162.66,186.53
L 163.31,187.90
L 163.96,189.28
L 164.59,190.67
L 165.20,192.06
L 165.81,193.45
L 166.40,194.86
L 166.97,196.27
L 167.53,197.68
L 168.08,199.10
L 168.62,200.53
L 169.13,201.96
L 169.64,203.39
L 170.13,204.83
L 170.61,206.28
L 171.07,207.73
L 171.52,209.18
L 171.96,210.64
L 172.38,212.10
L 172.78,213.57
L 173.17,215.04
L 173.55,216.51
L 173.91,217.99
L 174.26,219.47
L 174.59,220.96
L 174.91,222.44
L 175.22,223.93
L 175.51,225.43
L 175.78,226.93
L 176.04,228.42
L 176.29,229.93
L 176.52,231.43
L 176.73,232.94
L 176.93,234.45
L 177.12,235.96
L 177.29,237.47
L 177.45,238.98
L 177.59,240.50
L 177.72,242.01
L 177.83,243.53
L 177.93,245.05
L 178.01,246.57
L 178.08,248.09
L 178.13,249.61
L 178.17,251.13
L 178.19,252.65
L 178.20,254.17
Z" fill="white" stroke="black" stroke-width="0.3"/>
<line x1="176.20" y1="254.17" x2="180.20" y2="254.17" stroke="black" stroke-width="0.3"/>
<line x1="188.20" y1="254.17" x2="192.20" y2="254.17" stroke="black" stroke-width="0.3"/>
<line x1="131.38" y1="145.99" x2="134.21" y2="143.16" stroke="black" stroke-width="0.3"/>
<line x1="139.87" y1="137.50" x2="142.70" y2="134.67" stroke="black" stroke-width="0.3"/>
<text x="161.5" y="258.2" text-anchor="middle" font-size="3.5" font-family="Arial, sans-serif" fill="black">Seg 6 - White</text>
</svg>